<svg width="232" height="177" viewBox="0 0 232 177" fill="none" xmlns="http://www.w3.org/2000/svg">
<path d="M50.2335 176.261C68.7912 125.084 -10.8237 120.902 37.6875 84.1524C45.6856 78.5067 54.8337 72.6519 57.3952 63.2424C59.7998 54.3557 55.6178 45.103 55.5655 35.8503C62.5181 -14.2814 122.478 -3.09458 154.888 16.9268C168.009 23.5134 182.803 32.4002 184.319 46.9849C184.894 52.6829 183.273 58.5899 185.155 64.0265C195.297 84.1002 226.139 74.7952 231.262 111.858C234.137 153.103 193.258 148.137 183.169 173.961" fill="#1379F0" fill-opacity="0.2"/>
<path d="M26.5914 83.1088C18.7498 83.1148 10.9232 82.4233 3.2042 81.0424C3.06511 81.0185 2.93836 80.9478 2.84496 80.8421C2.75155 80.7363 2.69713 80.6017 2.69069 80.4608L1.45328 53.3737H1.21197C1.04788 53.3737 0.890517 53.3085 0.774486 53.1924C0.658456 53.0764 0.593262 52.9191 0.593262 52.755C0.593262 52.5909 0.658456 52.4335 0.774486 52.3175C0.890517 52.2014 1.04788 52.1362 1.21197 52.1362L59.8037 51.1401C59.9811 51.1443 60.1498 51.2176 60.274 51.3443C60.3338 51.412 60.3781 51.4919 60.4037 51.5785C60.4294 51.665 60.4358 51.7562 60.4224 51.8455L56.4689 79.3285C56.4514 79.4542 56.3958 79.5714 56.3094 79.6644C56.2231 79.7574 56.1103 79.8216 55.9863 79.8483C46.3383 82.0162 36.48 83.1097 26.5914 83.1088ZM3.90953 79.9101C20.9609 82.8685 38.4259 82.4692 55.3243 78.7346L59.086 52.3899L2.69069 53.3427L3.90953 79.9101Z" fill="#4B5675"/>
<path d="M27.3403 93.2115C27.1877 93.2128 27.0401 93.1578 26.9257 93.0569C26.8646 93.0019 26.8151 92.9352 26.78 92.8609C26.745 92.7865 26.7251 92.7059 26.7216 92.6238L26.3503 84.7847C26.3501 84.6259 26.411 84.473 26.5205 84.3578C26.6299 84.2426 26.7795 84.174 26.9381 84.166C27.1022 84.166 27.2596 84.2312 27.3756 84.3472C27.4916 84.4633 27.5568 84.6206 27.5568 84.7847L27.9033 91.9927C43.9402 91.0399 60.1937 90.879 76.2245 91.5039C76.3886 91.5039 76.5459 91.5691 76.662 91.6851C76.778 91.8012 76.8432 91.9585 76.8432 92.1226C76.8432 92.2867 76.778 92.4441 76.662 92.5601C76.5459 92.6761 76.3886 92.7413 76.2245 92.7413C60.0267 92.1226 43.6 92.2835 27.4022 93.2672L27.3403 93.2115Z" fill="#F9F9F9"/>
<path d="M75.8582 71.4692C75.7617 71.4684 75.6666 71.4451 75.5806 71.4011C75.4947 71.357 75.4202 71.2935 75.3632 71.2155C74.992 70.7144 74.1629 70.5968 73.3524 70.5164L58.7757 69.0871C58.6124 69.0715 58.4621 68.9916 58.3577 68.8652C58.2532 68.7387 58.2033 68.576 58.2188 68.4127C58.2266 68.3313 58.2503 68.2523 58.2888 68.1801C58.3273 68.108 58.3797 68.0441 58.443 67.9924C58.5063 67.9406 58.5792 67.9019 58.6575 67.8785C58.7359 67.855 58.8181 67.8474 58.8994 67.8559L73.4762 69.2851C74.5156 69.3841 75.6788 69.5697 76.3532 70.4792C76.4517 70.6105 76.4939 70.7755 76.4707 70.938C76.4475 71.1004 76.3607 71.247 76.2295 71.3454C76.1224 71.4257 75.9921 71.4692 75.8582 71.4692Z" fill="#F9F9F9"/>
<path d="M52.7559 59.1116H52.7188C52.4606 59.1147 52.2062 59.0486 51.9821 58.9202C51.758 58.7918 51.5723 58.6059 51.4443 58.3815C51.3671 58.2378 51.3497 58.0694 51.3961 57.913C51.4424 57.7565 51.5487 57.6247 51.6918 57.5463C51.7632 57.5071 51.8417 57.4824 51.9227 57.4736C52.0038 57.4648 52.0857 57.4722 52.1639 57.4952C52.2421 57.5182 52.315 57.5564 52.3783 57.6076C52.4417 57.6589 52.4944 57.7221 52.5332 57.7938C52.5602 57.8222 52.5929 57.8446 52.6291 57.8595C52.6654 57.8745 52.7044 57.8816 52.7436 57.8804C52.831 57.8773 52.9154 57.847 52.9849 57.7938C52.9994 57.7183 52.9835 57.6402 52.9406 57.5764C52.8977 57.5126 52.8313 57.4684 52.7559 57.4535C52.5918 57.46 52.4319 57.4011 52.3112 57.2897C52.1905 57.1783 52.1191 57.0236 52.1125 56.8595C52.1059 56.6954 52.1648 56.5354 52.2762 56.4148C52.3876 56.2941 52.5423 56.2226 52.7064 56.2161C52.9706 56.2113 53.2312 56.2777 53.4609 56.4083C53.6906 56.539 53.881 56.729 54.0119 56.9585C54.1482 57.1775 54.2234 57.4288 54.2299 57.6866C54.2365 57.9444 54.174 58.1993 54.0491 58.4249C53.9103 58.6405 53.7186 58.8168 53.4922 58.9371C53.2658 59.0573 53.0122 59.1174 52.7559 59.1116Z" fill="#4B5675"/>
<path d="M9.98469 60.4613H9.92903C9.65658 60.4488 9.39046 60.375 9.1505 60.2454C8.91054 60.1158 8.7029 59.9336 8.54309 59.7126C8.38072 59.502 8.26849 59.2571 8.21489 58.9966C8.16129 58.7361 8.16772 58.4668 8.23373 58.2092C8.23901 58.1279 8.26026 58.0485 8.29623 57.9755C8.3322 57.9024 8.3822 57.8372 8.44339 57.7835C8.50458 57.7298 8.57574 57.6886 8.65282 57.6624C8.72991 57.6362 8.81141 57.6254 8.89266 57.6307C8.97391 57.636 9.05333 57.6572 9.12637 57.6932C9.19942 57.7292 9.26468 57.7792 9.3184 57.8404C9.37212 57.9015 9.41325 57.9727 9.43947 58.0498C9.46568 58.1269 9.47643 58.2084 9.47115 58.2896C9.73366 58.0685 10.0455 57.9137 10.3804 57.8383C10.7153 57.7629 11.0634 57.7692 11.3954 57.8565C11.5082 57.8875 11.61 57.9499 11.6889 58.0364C11.7677 58.1229 11.8204 58.2301 11.8408 58.3453C11.8802 58.6061 11.8612 58.8723 11.7853 59.1248C11.7093 59.3773 11.5782 59.6098 11.4015 59.8055C11.2272 60.0111 11.0101 60.1763 10.7654 60.2896C10.5208 60.4029 10.2543 60.4615 9.98469 60.4613Z" fill="#4B5675"/>
<path d="M70.6003 76.852C70.5138 76.8581 70.427 76.8581 70.3405 76.852C70.1764 76.8208 70.0314 76.7257 69.9374 76.5877C69.8434 76.4496 69.8081 76.2798 69.8393 76.1157C69.8705 75.9516 69.9656 75.8067 70.1036 75.7127C70.2417 75.6187 70.4115 75.5834 70.5756 75.6146C70.6179 75.6195 70.6608 75.6142 70.7006 75.5992C70.7404 75.5841 70.7761 75.5597 70.8045 75.5279C70.8317 75.5062 70.8541 75.4791 70.87 75.4482C70.886 75.4172 70.8953 75.3833 70.8973 75.3485C70.8873 75.316 70.8706 75.286 70.8482 75.2604C70.8258 75.2348 70.7983 75.2143 70.7674 75.2001C70.7329 75.1779 70.6939 75.1636 70.6533 75.1583C70.6126 75.1529 70.5713 75.1567 70.5323 75.1691C70.458 75.2032 70.3777 75.2223 70.296 75.2252C70.2143 75.2281 70.1328 75.2148 70.0563 75.186C69.9798 75.1572 69.9098 75.1136 69.8502 75.0576C69.7907 75.0016 69.7428 74.9344 69.7094 74.8598C69.6424 74.7104 69.6374 74.5406 69.6954 74.3875C69.7534 74.2344 69.8696 74.1106 70.0188 74.0431C70.2362 73.9492 70.4725 73.9076 70.7089 73.9216C70.9453 73.9356 71.1751 74.0047 71.3799 74.1235C71.5848 74.2289 71.7605 74.3833 71.8913 74.573C72.0222 74.7627 72.1041 74.9818 72.1298 75.2109C72.1555 75.4399 72.1242 75.6717 72.0387 75.8857C71.9532 76.0997 71.8162 76.2892 71.6398 76.4375C71.3578 76.7016 70.9867 76.8496 70.6003 76.852Z" fill="#F9F9F9"/>
<path d="M75.8462 92.3184C75.6822 92.3184 75.5248 92.2532 75.4088 92.1371C75.2927 92.0211 75.2275 91.8637 75.2275 91.6996L75.6483 70.9605C75.6483 70.7964 75.7135 70.6391 75.8295 70.523C75.9455 70.407 76.1029 70.3418 76.267 70.3418C76.4311 70.3418 76.5884 70.407 76.7045 70.523C76.8205 70.6391 76.8857 70.7964 76.8857 70.9605L76.465 91.6996C76.465 91.8637 76.3998 92.0211 76.2837 92.1371C76.1677 92.2532 76.0103 92.3184 75.8462 92.3184Z" fill="#F9F9F9"/>
<path d="M28.0383 70.8419C21.8889 70.8482 15.7542 70.243 9.72456 69.0352C9.64331 69.0194 9.56596 68.9877 9.49696 68.9419C9.42796 68.8962 9.36863 68.8373 9.32238 68.7687C9.22898 68.63 9.19451 68.4599 9.2265 68.2958C9.2585 68.1318 9.35438 67.9871 9.49303 67.8937C9.63169 67.8003 9.80177 67.7658 9.96587 67.7978C20.8537 69.967 32.0432 70.1577 42.9987 68.3608C43.1603 68.334 43.326 68.3723 43.4594 68.4674C43.5928 68.5625 43.683 68.7066 43.7102 68.8682C43.7371 69.0298 43.6988 69.1954 43.6037 69.3288C43.5086 69.4622 43.3644 69.5524 43.2029 69.5797C38.191 70.4135 33.1192 70.8357 28.0383 70.8419Z" fill="#4B5675"/>
<path d="M65.7493 85.1017H55.9922C55.8282 85.1017 55.6708 85.0365 55.5548 84.9205C55.4387 84.8044 55.3735 84.6471 55.3735 84.483C55.3735 84.3189 55.4387 84.1615 55.5548 84.0454C55.6708 83.9294 55.8282 83.8643 55.9922 83.8643H65.7493C65.9134 83.8643 66.0708 83.9294 66.1868 84.0454C66.3028 84.1615 66.368 84.3189 66.368 84.483C66.368 84.6471 66.3028 84.8044 66.1868 84.9205C66.0708 85.0365 65.9134 85.1017 65.7493 85.1017Z" fill="#F9F9F9"/>
<path d="M190.956 115.823C181.721 103.407 169.281 91.793 161.057 86.0495C156.925 83.1356 152.75 80.9818 148.617 79.377C146.593 73.5491 144.695 67.8479 142.797 61.5554C144.695 61.4287 146.55 60.6686 147.858 59.3172C152.918 53.9116 148.026 45.9299 141.785 46.3944C142.713 39.1729 144.231 31.9091 140.056 25.5322C122.935 6.61261 104.127 40.1442 92.15 49.1817C92.15 49.1817 102.608 53.2781 107.753 55.263C107.753 55.263 106.825 74.3515 106.53 82.7977C95.9453 88.6256 87.1737 97.5786 81.5228 107.123H32.0985C28.9778 107.123 26.7849 110.713 27.7548 114.218L39.2254 155.773C39.858 158.012 41.5869 159.532 43.5689 159.532H45.4245C46.5631 163.079 49.8946 165.698 53.8165 165.698H123.947C128.965 165.74 132.803 161.559 132.803 156.66C135.966 159.912 154.099 165.698 166.877 165.698C175.311 165.698 195.553 163.924 198.505 162.319C208.331 156.998 206.728 133.94 190.956 115.823ZM105.982 153.915C105.982 153.408 105.898 152.944 105.771 152.437L102.904 142.09C103.874 141.795 104.801 141.541 105.729 141.33C106.193 141.71 106.868 142.048 107.838 142.175C111.591 142.555 115.724 141.035 119.097 143.484C121.079 144.92 121.965 147.369 123.314 149.396C124.706 151.381 126.646 152.944 128.839 153.915C125.086 153.915 116.398 153.915 105.982 153.915ZM132.803 155.14C132.761 155.182 132.761 155.182 132.718 155.224C132.676 155.14 132.676 155.098 132.634 155.013C132.718 155.013 132.803 155.055 132.929 155.055C132.845 155.098 132.845 155.098 132.803 155.14Z" fill="#F9F9F9"/>
<path d="M137.346 53.5068C139.378 51.5101 142.3 50.4905 145.137 50.8728C145.476 50.9153 145.773 51.1277 145.773 51.5101C145.773 51.8075 145.476 52.1898 145.137 52.1473C142.639 51.8075 140.056 52.6571 138.235 54.4414C137.685 54.9937 136.795 54.1015 137.346 53.5068ZM124.812 62.0458L124.769 62.0033C124.769 62.0033 124.769 62.0458 124.812 62.0458ZM120.746 36.8961C120.916 37.1935 121.339 37.3209 121.636 37.1085C121.932 36.8961 122.017 36.5562 121.847 36.2164C121.551 35.6641 121.255 35.1118 120.958 34.5595C120.789 34.2622 120.365 34.1347 120.069 34.3471C119.773 34.5595 119.688 34.8994 119.857 35.2393C120.154 35.7915 120.45 36.3438 120.746 36.8961ZM120.196 64.8071C120.196 64.8496 120.196 64.8496 120.196 64.8071V64.8071ZM133.365 156.4C133.408 156.4 133.408 156.4 133.365 156.4V156.4ZM127.479 95.8194C127.818 97.1788 127.352 98.6232 126.251 99.4729C124.981 100.408 123.033 100.28 121.89 99.1755C120.831 98.1984 120.577 96.5416 121.085 95.2246C121.636 93.6953 122.991 92.7606 124.6 92.8031C125.023 92.8031 125.235 93.1855 125.193 93.5253C125.531 93.6103 125.87 93.7377 126.209 93.9502C126.844 94.375 127.268 95.0547 127.479 95.8194ZM126.294 96.7965C126.294 96.669 126.294 96.5416 126.294 96.4566C126.294 96.4141 126.294 96.4141 126.294 96.4141V96.3717C126.294 96.3292 126.251 96.2442 126.251 96.2017C126.209 96.0743 126.167 95.9468 126.124 95.8619C126.124 95.8194 126.082 95.8194 126.082 95.7769C126.04 95.7344 126.04 95.6495 125.997 95.607C125.955 95.5645 125.955 95.522 125.913 95.4795L125.87 95.437C125.786 95.3521 125.701 95.2246 125.574 95.1397L125.532 95.0972C125.489 95.0547 125.447 95.0547 125.404 95.0122C125.362 94.9697 125.277 94.9273 125.193 94.9273C125.15 94.9273 125.15 94.9272 125.108 94.8848C124.981 94.8423 124.854 94.7998 124.685 94.7998C124.642 94.7998 124.642 94.7998 124.6 94.7998C124.515 94.7998 124.431 94.7998 124.346 94.7998C124.261 94.7998 124.176 94.7998 124.092 94.7998C124.049 94.7998 123.838 94.8423 123.922 94.7998C123.626 94.8423 123.33 94.7148 123.202 94.4599C123.118 94.5024 123.075 94.5449 122.991 94.5874C122.991 94.5874 122.991 94.5874 122.948 94.5874L122.906 94.6299C122.779 94.7149 122.694 94.8423 122.567 94.9697C122.567 95.0122 122.525 95.0122 122.525 95.0547C122.483 95.1397 122.44 95.1822 122.398 95.2671C122.356 95.3096 122.313 95.3946 122.313 95.437L122.271 95.522V95.5645C122.229 95.6919 122.186 95.8619 122.144 95.9893C122.144 96.0743 122.101 96.1168 122.101 96.2017C122.101 96.2442 122.101 96.2442 122.101 96.2867C122.101 96.4141 122.101 96.5416 122.101 96.7115C122.101 96.7965 122.101 96.8815 122.101 96.9239V96.9664C122.101 96.9664 122.101 96.9664 122.101 97.0089C122.144 97.1363 122.144 97.2638 122.186 97.3913C122.229 97.4762 122.229 97.5187 122.271 97.6037C122.271 97.6461 122.313 97.6461 122.313 97.6886C122.356 97.8161 122.44 97.901 122.525 98.0285L122.567 98.1134C122.61 98.1559 122.652 98.1984 122.694 98.2834C122.737 98.3259 122.779 98.3683 122.864 98.4108L122.906 98.4533C122.906 98.4533 122.906 98.4533 122.948 98.4533C123.075 98.5383 123.203 98.6232 123.33 98.6657C123.372 98.6657 123.414 98.7082 123.414 98.7082C123.499 98.7507 123.584 98.7507 123.626 98.7932C123.711 98.8356 123.795 98.8357 123.88 98.8357H123.922C123.965 98.8357 124.007 98.8357 124.007 98.8357C124.176 98.8357 124.303 98.8357 124.473 98.8357C124.473 98.8357 124.473 98.8357 124.515 98.8357C124.558 98.8357 124.6 98.8356 124.642 98.7932C124.727 98.7932 124.769 98.7507 124.854 98.7507C124.939 98.7507 124.981 98.7082 125.066 98.6657C125.108 98.6657 125.108 98.6232 125.15 98.6232C125.277 98.5808 125.362 98.4958 125.447 98.4533C125.489 98.4533 125.532 98.4108 125.532 98.3683C125.574 98.3259 125.616 98.2834 125.659 98.2409C125.701 98.1984 125.743 98.1559 125.786 98.1134L125.828 98.071C125.913 97.9435 125.955 97.8586 125.997 97.7311C125.997 97.7311 125.997 97.6886 126.04 97.6886C126.04 97.6886 126.04 97.6886 126.04 97.6461C126.04 97.6037 126.082 97.5187 126.082 97.4762C126.124 97.3488 126.124 97.2638 126.167 97.1364C126.167 97.0939 126.167 97.0939 126.167 97.0939C126.167 97.0939 126.167 97.0939 126.167 97.0514C126.294 96.9239 126.294 96.839 126.294 96.7965ZM150.727 107.969C151.023 109.584 149.711 110.688 148.356 111.283C148.949 112.175 149.372 113.152 149.414 114.214C149.457 114.937 149.203 115.744 148.61 116.211C148.059 116.678 147.297 116.806 146.62 116.593C145.095 116.126 144.502 114.512 144.418 112.982C143.994 113.195 143.486 113.28 142.978 113.237C141.411 113.152 139.844 111.878 140.014 110.178C140.141 109.159 140.734 108.309 141.75 108.012C142.385 107.842 143.02 107.884 143.571 108.182C143.317 107.247 143.232 106.27 143.613 105.378C144.206 104.019 145.942 103.721 147.043 104.698C147.551 105.166 147.763 105.718 147.763 106.27C149.076 105.93 150.473 106.567 150.727 107.969ZM144.799 105.973C144.841 105.93 144.841 105.93 144.799 105.973V105.973ZM147.382 115.446C147.467 115.446 147.467 115.446 147.382 115.446V115.446ZM147.932 115.149C147.89 115.191 147.89 115.191 147.932 115.149V115.149ZM149.499 108.479C149.499 108.437 149.499 108.352 149.499 108.309C149.499 108.309 149.499 108.309 149.499 108.267C149.499 108.224 149.457 108.182 149.457 108.097L149.414 108.012C149.414 107.969 149.372 107.927 149.372 107.927C149.33 107.884 149.33 107.842 149.287 107.799C149.33 107.842 149.33 107.842 149.245 107.757C149.203 107.715 149.16 107.672 149.118 107.63C149.076 107.587 149.033 107.587 148.991 107.545C148.991 107.545 148.991 107.545 148.949 107.545C148.906 107.545 148.821 107.502 148.779 107.502C148.737 107.502 148.694 107.502 148.694 107.502C148.652 107.502 148.61 107.502 148.567 107.502C148.567 107.502 148.483 107.502 148.44 107.502C148.398 107.502 148.313 107.502 148.313 107.545C148.271 107.545 148.186 107.587 148.144 107.587C148.144 107.587 148.102 107.587 148.102 107.63C148.059 107.672 147.975 107.715 147.932 107.715C147.89 107.715 147.763 107.842 147.763 107.842C147.721 107.884 147.636 107.927 147.594 107.969C147.509 108.012 147.466 108.097 147.424 108.182C147.17 108.734 146.789 109.244 146.45 109.669C146.238 109.924 145.857 109.881 145.603 109.711C145.349 109.499 145.307 109.159 145.434 108.904C145.688 108.394 145.984 107.842 146.408 107.375C146.45 107.332 146.45 107.247 146.45 107.247C146.492 107.162 146.493 107.035 146.535 106.95C146.535 106.907 146.535 106.865 146.577 106.822C146.577 106.737 146.577 106.652 146.577 106.567C146.577 106.482 146.535 106.27 146.577 106.44C146.577 106.398 146.535 106.313 146.535 106.27C146.535 106.228 146.493 106.185 146.493 106.1C146.493 106.1 146.492 106.058 146.45 106.058C146.408 106.015 146.365 105.93 146.365 105.888L146.323 105.845C146.281 105.803 146.238 105.76 146.196 105.718C146.154 105.675 146.069 105.633 146.027 105.633H145.984C145.9 105.633 145.815 105.59 145.73 105.548H145.688C145.646 105.548 145.603 105.548 145.519 105.548C145.476 105.548 145.434 105.59 145.349 105.59H145.307C145.264 105.633 145.222 105.633 145.18 105.675C145.18 105.675 145.18 105.675 145.137 105.718C145.095 105.76 145.053 105.803 145.01 105.845L144.968 105.888C144.968 105.888 144.968 105.845 145.01 105.845L144.968 105.888C144.968 105.888 144.968 105.888 144.968 105.845V105.888C144.926 105.93 144.926 105.973 144.883 106.015C144.883 106.015 144.841 106.058 144.841 106.1C144.799 106.185 144.799 106.228 144.756 106.313C144.756 106.355 144.714 106.44 144.714 106.483C144.714 106.525 144.714 106.61 144.714 106.652C144.714 106.865 144.714 107.035 144.714 107.247C144.714 107.29 144.714 107.29 144.714 107.29C144.714 107.29 144.714 107.29 144.714 107.332C144.714 107.375 144.714 107.46 144.756 107.502C144.799 107.63 144.799 107.715 144.841 107.842C144.926 108.097 145.01 108.352 145.095 108.607C145.222 108.947 144.968 109.286 144.672 109.371C144.629 109.371 144.587 109.371 144.545 109.371C144.502 109.541 144.375 109.669 144.248 109.754C143.909 109.924 143.571 109.796 143.359 109.541C143.063 109.116 142.3 109.159 141.835 109.456C141.623 109.584 141.496 109.754 141.411 110.009C141.369 110.094 141.369 110.178 141.369 110.263C141.326 110.391 141.369 110.263 141.369 110.348C141.369 110.433 141.369 110.476 141.369 110.561C141.369 110.603 141.369 110.646 141.369 110.646C141.369 110.731 141.411 110.773 141.411 110.858L141.453 110.943C141.496 111.071 141.58 111.156 141.623 111.283C141.623 111.326 141.665 111.326 141.665 111.368C141.708 111.41 141.75 111.453 141.792 111.495C141.877 111.58 141.877 111.58 142.004 111.665C142.427 111.963 142.851 112.048 143.401 112.005C143.486 112.005 143.401 112.005 143.528 112.005C143.613 112.005 143.698 111.963 143.74 111.963C143.909 111.92 143.909 111.92 144.036 111.835C144.291 111.708 144.46 111.58 144.672 111.326C145.01 110.901 145.815 111.241 145.773 111.793C145.73 112.345 145.688 113.067 145.773 113.492C145.815 113.747 145.857 113.959 145.942 114.214C145.942 114.257 145.984 114.342 146.027 114.384C146.069 114.469 146.111 114.554 146.154 114.639C146.196 114.724 146.238 114.809 146.323 114.894C146.323 114.937 146.365 114.937 146.365 114.937C146.365 114.937 146.366 114.937 146.408 114.979C146.493 115.064 146.577 115.149 146.662 115.234C146.704 115.276 146.747 115.319 146.789 115.319C146.831 115.361 146.916 115.361 146.958 115.404H147.001C147.043 115.404 147.128 115.446 147.17 115.446H147.212C147.212 115.446 147.212 115.446 147.255 115.446C147.297 115.446 147.382 115.446 147.424 115.446H147.466C147.509 115.446 147.593 115.404 147.636 115.404H147.678C147.721 115.361 147.763 115.361 147.848 115.319C147.848 115.319 147.89 115.319 147.89 115.276C147.932 115.234 147.975 115.191 148.017 115.149L148.059 115.106C148.059 115.106 148.059 115.106 148.059 115.064C148.102 115.021 148.102 114.979 148.144 114.894C148.144 114.894 148.144 114.894 148.144 114.852C148.144 114.852 148.144 114.852 148.144 114.809C148.144 114.767 148.186 114.682 148.186 114.639C148.186 114.597 148.229 114.427 148.229 114.469C148.229 114.427 148.229 114.342 148.229 114.299C148.229 114.214 148.229 114.129 148.229 114.044C148.229 114.002 148.229 113.959 148.229 113.917C148.059 112.897 147.551 112.048 146.916 111.198C146.662 110.858 146.958 110.348 147.297 110.263C147.805 110.136 148.229 109.966 148.652 109.669C148.864 109.541 148.864 109.499 149.033 109.371C149.076 109.329 149.16 109.244 149.203 109.201L149.245 109.159L149.287 109.116C149.33 109.031 149.372 108.989 149.414 108.904L149.457 108.819C149.499 108.734 149.499 108.607 149.541 108.522C149.499 108.522 149.499 108.479 149.499 108.479ZM148.144 114.002C148.144 114.044 148.144 114.087 148.144 114.002V114.002ZM205.861 151.089C205.607 154.573 204.718 158.184 202.516 160.988C201.669 162.05 200.568 163.069 199.297 163.622C198.196 164.131 196.968 164.344 195.783 164.556C191.633 165.321 187.398 165.746 183.164 166.128C178.717 166.51 174.271 166.85 169.783 166.978C165.167 167.105 160.551 166.68 156.02 165.873C151.151 165.023 146.323 163.749 141.623 162.135C139.802 161.497 137.981 160.775 136.245 159.926C135.186 159.416 134.128 158.863 133.196 158.099C132.815 162.644 129.131 166.383 124.388 166.383H124.346H53.9252C49.9871 166.383 46.6418 163.791 45.4985 160.18H43.6354C41.6451 160.18 39.8666 158.651 39.2737 156.4L27.7558 114.597C26.7818 111.071 28.9837 107.46 32.1173 107.46H80.9841C82.8473 104.273 85.0069 101.257 87.3359 98.4108C90.9353 94.0351 95.0851 90.1267 99.6584 86.8131C101.733 85.2837 103.935 83.8818 106.18 82.6498C106.222 81.0779 106.307 79.4636 106.349 77.8917C106.561 72.9638 106.772 68.0358 107.027 63.1078C107.154 60.6438 107.238 58.2223 107.365 55.7583C106.18 55.291 104.994 54.8237 103.808 54.3564C99.9125 52.8695 96.059 51.3402 92.1632 49.8108C91.6127 49.5984 91.5704 49.0036 91.9939 48.6638C92.375 48.3664 92.7561 48.069 93.1372 47.7291C97.2871 44.1606 100.802 39.8699 104.443 35.834C107.619 32.3505 110.88 28.8244 114.564 25.8081C115.326 20.3279 124.769 12.851 130.825 17.2692C147.085 11.0667 159.789 31.6707 153.776 45.1802C152.887 47.4318 151.786 49.5984 150.515 51.68C151.32 54.059 151.108 56.8204 149.118 59.2844C152.336 63.9575 159.196 65.6568 164.151 62.5131C164.828 62.0882 165.844 61.7059 166.268 62.3431C164.235 69.6077 155.681 74.6631 148.483 76.15C148.822 77.1271 149.16 78.1042 149.499 79.0813C149.711 79.1662 149.88 79.2087 150.092 79.2937C156.02 81.7152 161.398 85.1563 166.395 89.1496C171.307 93.1005 175.88 97.4337 180.242 101.979C184.434 106.355 188.415 110.986 192.056 115.871C193.835 117.953 195.529 120.162 197.053 122.456C200.102 127.087 202.516 132.184 204.082 137.495C205.437 141.87 206.2 146.501 205.861 151.089ZM117.698 23.3442C119.01 22.4095 120.365 21.5599 121.847 20.8802C120.323 21.4324 118.883 22.2821 117.698 23.3442ZM108.212 54.6113C108.466 54.6963 108.678 54.9087 108.678 55.2061C108.636 56.1407 108.593 57.0753 108.551 58.0099C108.339 62.4706 108.128 66.8888 107.958 71.3494C107.789 75.5977 107.577 79.8459 107.45 84.0942C110.202 85.0713 113.04 85.836 115.919 86.3458C127.141 88.3425 138.955 86.6432 149.16 81.5452C148.567 79.8884 147.975 78.2316 147.424 76.5748C145.773 71.8168 144.248 67.0162 142.766 62.2157H142.724C140.988 62.2157 139.294 61.7059 137.896 60.6863C137.6 60.4739 137.558 60.0916 137.769 59.7942C137.981 59.4968 138.362 59.4543 138.659 59.6667C141.326 61.6634 145.561 61.2811 147.89 58.8596C150.727 55.8433 150.092 52.0624 148.229 49.6833C146.323 47.3043 142.808 45.8174 139.251 47.8991C138.955 48.069 138.574 47.984 138.404 47.6867C138.235 47.3893 138.32 47.0069 138.616 46.7945C138.955 46.5821 139.294 46.4122 139.633 46.2847C139.251 44.1606 138.913 42.0365 138.574 39.9123C126.167 40.1672 119.73 32.4354 124.939 20.9651C121.72 22.0272 118.799 24.0239 116.215 26.063C111.557 29.844 107.535 34.3047 103.554 38.7653C100.421 42.2489 97.3294 45.9449 93.6877 48.9187C93.7724 48.9611 93.8994 49.0036 93.9841 49.0461C98.6845 50.9153 103.47 52.7846 108.212 54.6113ZM101.649 158.863C102.58 158.863 103.427 158.396 104.062 157.547C104.909 156.399 105.206 154.785 104.825 153.298L93.3065 111.495C92.8407 109.796 91.5704 108.649 90.173 108.649H32.1597C31.2281 108.649 30.3812 109.116 29.746 109.966C28.8991 111.113 28.6027 112.727 28.9838 114.214L40.5017 156.017C40.9675 157.716 42.238 158.863 43.6354 158.863H101.649ZM100.886 128.488C100.675 128.488 100.463 128.531 100.251 128.488C99.6584 128.403 99.2773 128.149 99.0232 127.809L102.919 141.998C103.554 141.828 104.147 141.658 104.782 141.488C104.613 141.191 104.528 140.808 104.528 140.426C104.443 138.472 106.518 137.41 108.212 137.282C109.398 137.197 110.626 137.452 111.812 137.027C112.32 136.858 112.743 136.518 112.828 135.965C112.913 135.583 112.913 135.201 112.828 134.818C112.531 133.459 110.795 133.162 109.567 133.034C107.873 132.864 106.095 132.992 104.401 132.652C102.496 132.269 100.717 130.485 100.886 128.488ZM103.3 143.187L106.01 153.001C106.137 153.511 106.222 154.02 106.222 154.488C115.538 154.488 123.457 154.488 127.776 154.488C125.955 153.468 124.304 152.066 123.118 150.324C121.509 148.03 120.577 145.057 117.867 143.825C115.199 142.635 112.15 143.4 109.356 143.357C108.255 143.357 106.857 143.145 105.841 142.465C104.994 142.72 104.147 142.933 103.3 143.187ZM131.926 156.612V156.569V156.527C131.926 156.315 131.841 156.145 131.714 156.017C131.418 155.932 131.121 155.89 130.825 155.805C128.834 155.805 118.714 155.805 106.137 155.805C105.714 158.226 103.935 160.18 101.606 160.18H46.8113C47.9122 163.069 50.6647 165.108 53.8829 165.108H124.304H124.346C126.463 165.108 128.411 164.259 129.851 162.687C131.375 161.03 132.095 158.821 131.926 156.612ZM133.958 153.851C134.763 152.788 135.44 151.641 136.033 150.494C137.219 148.158 138.066 145.566 138.32 142.975C138.405 141.828 138.447 140.681 138.193 139.534C138.108 139.152 138.023 138.769 137.896 138.344C136.795 136.773 135.652 135.286 134.424 133.884C131.629 130.613 128.538 127.511 125.108 124.92C121.974 122.541 118.46 120.417 114.649 119.482C111.303 118.675 107.831 119.057 104.994 121.054C104.698 121.266 104.359 121.521 104.062 121.776C108.466 120.502 113.209 120.842 117.401 122.796C118.163 123.136 117.486 124.24 116.766 123.9C112.32 121.819 106.942 121.734 102.453 123.73C102.284 123.815 102.157 123.815 102.03 123.773C101.903 123.815 101.776 123.9 101.649 123.943C101.268 124.198 100.886 124.495 100.632 124.877C100.251 125.43 99.8701 126.237 100.082 126.874C100.124 127.044 100.251 127.214 100.421 127.256C100.802 127.384 101.183 127.256 101.564 127.129C101.606 127.129 101.606 127.129 101.649 127.129C105.375 122.583 111.812 125.047 115.792 127.809C116.47 128.276 115.834 129.381 115.157 128.913C111.642 126.492 105.841 123.943 102.538 128.021C102.496 128.106 102.411 128.149 102.369 128.149C102.369 128.149 102.369 128.149 102.369 128.191C101.818 129.466 103.046 130.825 104.147 131.292C104.867 131.59 105.714 131.59 106.518 131.632C108.339 131.717 110.329 131.632 112.066 132.269C113.632 132.864 114.479 134.139 114.31 135.838C114.225 136.433 114.141 136.942 113.675 137.41C113.294 137.835 112.828 138.09 112.32 138.259C111.176 138.642 109.948 138.599 108.763 138.557C107.916 138.557 106.984 138.727 106.391 139.364C106.01 139.789 105.841 140.341 106.053 140.808C106.391 141.616 107.408 141.955 108.212 142.04C109.567 142.253 111.007 142.083 112.362 141.998C115.157 141.828 118.036 141.955 120.281 143.867C122.356 145.651 123.16 148.413 124.896 150.452C126.505 152.406 128.707 153.766 131.121 154.488C131.248 154.488 131.291 154.488 131.291 154.488C131.672 154.488 132.053 154.615 132.349 154.785C132.603 154.828 132.857 154.87 133.111 154.913C133.365 154.615 133.662 154.233 133.958 153.851ZM204.379 144.589C203.744 139.746 202.262 134.988 200.187 130.57C197.773 125.345 194.597 120.544 190.786 116.211C190.617 115.999 190.574 115.786 190.659 115.574L190.235 115.446C189.261 114.129 188.245 112.855 187.187 111.623C182.867 106.355 178.125 101.342 173.17 96.669C169.063 92.8456 164.786 89.1496 160.128 86.0059C156.952 83.8818 153.607 82.055 150.092 80.6106C150.219 80.993 150.346 81.3753 150.473 81.7577C150.558 82.0126 150.473 82.225 150.346 82.3524C150.388 82.4799 150.431 82.6073 150.388 82.7348C149.922 85.0288 148.864 87.1105 147.382 88.8947C144.799 91.911 141.03 93.7802 137.134 94.2051C133.111 94.6299 129.046 93.3979 126.04 90.679C125.447 90.1267 126.336 89.2346 126.929 89.7869C128.496 91.1888 130.359 92.1659 132.391 92.6757C139.421 94.375 147.212 90.0842 149.033 83.0321C146.45 84.3066 143.74 85.3262 140.945 86.1758C129.639 89.532 117.232 89.1921 106.137 85.0713C105.798 84.9439 105.671 84.6465 105.714 84.3491C101.733 86.6856 98.0069 89.447 94.6193 92.5482C90.5965 96.2442 87.0394 100.408 83.9905 104.911C83.44 105.76 82.8896 106.61 82.3815 107.46H90.0037C91.9939 107.46 93.7723 108.989 94.3652 111.241L98.5574 126.534C98.5574 125.77 98.8538 124.92 99.2349 124.325C99.5737 123.858 99.9549 123.476 100.378 123.136C100.59 122.966 100.844 122.838 101.098 122.711C101.141 122.668 101.225 122.668 101.268 122.626C101.31 122.626 101.395 122.541 101.437 122.541C101.479 122.498 101.564 122.371 101.606 122.328C102.284 121.521 103.088 120.799 103.935 120.162C107.027 117.868 110.922 117.401 114.606 118.25C118.756 119.185 122.567 121.521 125.913 124.07C129.554 126.874 132.857 130.145 135.779 133.714C136.457 134.521 137.134 135.371 137.769 136.263C138.108 135.243 138.997 134.521 139.887 133.926C141.157 133.119 142.427 132.397 143.952 132.099C146.916 131.547 149.88 132.397 152.802 132.949C153.014 132.992 153.183 133.034 153.395 133.077C153.48 133.077 153.564 133.119 153.649 133.119C153.734 133.119 153.861 133.077 153.945 133.077C154.242 132.992 154.496 132.949 154.75 132.864C155.385 132.652 156.063 132.439 156.698 132.184C158.307 131.59 159.916 130.91 161.483 130.23C165.082 128.743 168.724 127.214 172.535 126.237C173.763 125.94 175.118 125.642 176.473 125.515C176.346 125.26 176.177 125.047 176.05 124.835C175.923 124.665 175.796 124.495 175.584 124.325C175.542 124.283 175.542 124.283 175.584 124.325C175.542 124.283 175.499 124.24 175.415 124.198C175.33 124.113 175.245 123.985 175.16 123.858C175.033 123.688 174.906 123.518 174.779 123.391C173.678 122.116 172.323 121.181 170.799 120.459C168.385 119.355 165.421 119.015 163.431 117.146C160.594 114.512 161.779 109.711 162.626 106.525C162.838 105.718 164.066 106.058 163.854 106.865C163.304 108.904 162.796 111.113 163.007 113.237C163.134 114.512 163.558 115.574 164.447 116.381C165.252 117.103 166.437 117.528 167.496 117.91C170.418 118.93 173.297 119.907 175.457 122.286C175.626 122.456 175.753 122.626 175.923 122.838C176.05 123.008 176.304 123.221 176.346 123.433C176.388 123.433 176.388 123.476 176.431 123.476C176.473 123.518 176.515 123.56 176.558 123.56C176.643 123.645 176.727 123.73 176.812 123.815C177.235 124.325 177.574 124.92 177.913 125.515V125.557C179.268 125.6 180.623 125.897 181.766 126.577C183.037 127.341 183.884 128.616 184.307 130.018C184.434 130.4 184.519 130.825 184.561 131.25C184.603 131.59 184.646 131.802 184.476 132.099C184.392 132.269 184.265 132.482 184.138 132.652C183.714 133.204 183.206 133.714 182.486 133.799C181.089 133.969 180.115 132.524 179.48 131.505C178.548 130.018 177.871 128.403 177.108 126.832C176.854 126.832 176.6 126.832 176.388 126.874C172.831 127.172 169.317 128.446 166.014 129.763C162.796 131.037 159.662 132.482 156.401 133.671C155.809 133.884 155.258 134.096 154.623 134.224C154.369 134.309 154.115 134.351 153.903 134.394C153.31 134.521 152.59 134.266 152.04 134.139C149.245 133.586 146.281 132.737 143.444 133.544C142.173 133.926 140.903 134.648 139.887 135.498C139.167 136.093 138.786 136.773 138.913 137.707C138.997 138.259 139.209 138.812 139.294 139.322C139.421 139.874 139.463 140.426 139.506 140.978C139.548 142.168 139.463 143.4 139.251 144.589C138.786 147.096 137.896 149.56 136.668 151.811C136.076 152.916 135.398 153.936 134.636 154.913C134.255 155.38 133.874 155.847 133.45 156.23C133.238 156.4 133.45 156.23 133.323 156.357C133.323 156.357 133.323 156.357 133.281 156.357V156.4C133.323 156.442 133.323 156.484 133.365 156.569C133.365 156.612 133.408 156.612 133.408 156.654C133.408 156.654 133.408 156.654 133.45 156.697C133.492 156.782 133.577 156.824 133.662 156.909C133.747 156.994 133.831 157.079 133.916 157.122C134.001 157.207 134.085 157.249 134.128 157.292C135.229 158.099 136.499 158.736 137.769 159.288C141.665 161.03 145.857 162.262 150.007 163.282C154.792 164.471 159.662 165.363 164.574 165.661C168.512 165.873 172.535 165.618 176.473 165.363C180.962 165.066 185.45 164.684 189.939 164.131C191.718 163.919 193.538 163.664 195.317 163.324C195.994 163.197 196.672 163.069 197.35 162.899C197.604 162.814 197.858 162.772 198.112 162.687C198.239 162.644 198.323 162.602 198.45 162.559C198.493 162.559 198.62 162.475 198.662 162.475C201.203 161.327 202.812 158.609 203.617 156.06C204.845 152.406 204.845 148.413 204.379 144.589ZM153.691 133.077H153.734C153.649 133.077 153.607 133.077 153.691 133.077ZM183.46 131.42C183.46 131.377 183.46 131.377 183.46 131.335C183.418 131.165 183.375 130.952 183.333 130.74C183.248 130.4 183.164 130.018 182.994 129.678C182.19 127.766 180.538 127.002 178.675 126.789C179.183 127.851 179.691 128.913 180.242 129.933C180.581 130.57 180.919 131.165 181.385 131.717C181.555 131.93 181.766 132.142 181.936 132.227C181.978 132.269 182.063 132.312 182.105 132.312C182.19 132.354 182.147 132.312 182.147 132.354C182.19 132.354 182.232 132.397 182.317 132.397C182.317 132.397 182.317 132.397 182.359 132.397C182.401 132.397 182.444 132.397 182.444 132.397C182.486 132.397 182.529 132.397 182.571 132.354C182.571 132.354 182.656 132.312 182.783 132.227C182.91 132.142 183.164 131.802 183.333 131.59C183.375 131.59 183.418 131.505 183.46 131.42ZM183.46 131.42C183.46 131.505 183.503 131.505 183.46 131.42V131.42ZM69.8048 130.528C70.8634 132.269 71.0752 134.691 70.0165 136.518C68.9579 138.429 66.5018 139.364 64.5116 138.344C62.7754 137.452 61.9286 135.328 61.9286 133.459C61.9286 131.972 62.4367 130.57 63.453 129.635C63.4953 129.466 63.5801 129.338 63.7495 129.211C64.8081 128.488 66.1208 128.106 67.3488 128.446C68.3651 128.786 69.2543 129.593 69.8048 130.528ZM68.4498 130.783C67.984 130.188 67.4335 129.805 66.7136 129.635C66.4596 129.593 65.9938 129.593 65.655 129.678C65.6127 129.678 65.6126 129.678 65.5702 129.72C65.4855 129.805 65.4009 129.848 65.3162 129.89C63.6224 130.528 62.9872 132.397 63.199 134.096C63.2836 134.776 63.5377 135.541 63.9612 136.178C64.3 136.73 64.8504 137.197 65.4433 137.367C66.1208 137.58 66.9254 137.495 67.6452 137.155C68.3651 136.773 68.9155 136.05 69.1696 135.328C69.7201 133.841 69.4237 132.015 68.4498 130.783ZM123.584 90.1267C123.922 89.4045 122.821 88.7248 122.483 89.4895C121.17 92.2509 118.545 93.9926 115.58 94.4599C112.955 94.8848 109.991 94.1626 108.255 92.0384C107.154 90.7215 106.772 89.0222 106.815 87.3229C106.815 86.5157 105.544 86.5157 105.544 87.3229C105.502 89.0647 105.883 90.8489 106.899 92.3358C107.789 93.6528 109.059 94.5874 110.541 95.1822C113.505 96.3717 117.02 95.9044 119.73 94.29C121.424 93.3129 122.779 91.8685 123.584 90.1267ZM111.43 45.9449C111.812 46.0298 112.066 45.8174 112.193 45.52C112.701 44.2456 113.251 42.9286 113.759 41.6541C113.886 41.3568 113.632 40.9319 113.336 40.8894C112.955 40.8045 112.701 41.0169 112.574 41.3143C112.066 42.5887 111.515 43.9057 111.007 45.1802C110.88 45.4776 111.134 45.8599 111.43 45.9449ZM119.137 65.4868C118.544 64.5097 119.264 63.2353 120.196 62.768C120.492 62.598 120.831 62.5131 121.17 62.4706C121.255 61.2386 122.61 60.3889 123.753 60.304C124.431 60.2615 125.15 60.5164 125.616 60.9837C125.828 61.1961 125.997 61.4935 126.124 61.7909C126.929 60.8138 127.564 59.6667 127.945 58.4347C128.199 57.6701 129.427 58.0099 129.173 58.7746C128.75 60.134 128.03 61.4085 127.183 62.5131C127.31 62.598 127.395 62.7255 127.437 62.8529C127.776 63.8725 127.861 64.9771 127.691 66.0391C127.437 67.441 126.505 68.9279 124.981 69.1828C123.245 69.4802 121.932 68.1632 121.085 66.8038C119.73 67.2286 118.29 67.441 116.808 67.3561C116.004 67.3136 116.004 66.0391 116.808 66.0816C117.74 66.1241 118.629 66.0391 119.518 65.8692C119.349 65.7842 119.222 65.6568 119.137 65.4868ZM120.196 64.8496C120.238 64.8921 120.281 64.9346 120.196 64.8496V64.8496ZM125.574 64.2124C124.6 65.1045 123.457 65.8267 122.229 66.3365C122.398 66.5914 122.567 66.8038 122.737 67.0162C122.906 67.1861 123.033 67.3136 123.202 67.4835C123.202 67.4835 123.203 67.4835 123.245 67.526C123.287 67.5685 123.33 67.5685 123.33 67.611C123.414 67.6535 123.499 67.7384 123.584 67.7809C123.626 67.8234 123.668 67.8234 123.711 67.8659C123.711 67.8659 123.753 67.8659 123.753 67.9083C123.795 67.9083 123.88 67.9508 123.922 67.9508C124.007 67.9508 124.049 67.9933 124.134 67.9933C124.134 67.9933 124.261 67.9933 124.261 68.0358C124.303 68.0358 124.388 68.0358 124.43 68.0358C124.473 68.0358 124.558 68.0358 124.6 68.0358H124.642C124.685 68.0358 124.769 67.9933 124.812 67.9933C124.854 67.9933 124.981 67.9508 124.981 67.9508C125.023 67.9508 125.066 67.9083 125.108 67.9083C125.15 67.8659 125.235 67.8659 125.277 67.8234C125.277 67.8234 125.362 67.7809 125.362 67.7384L125.404 67.6959C125.447 67.6534 125.447 67.6535 125.489 67.611C125.531 67.5685 125.574 67.526 125.616 67.4835C125.659 67.441 125.701 67.3986 125.701 67.3561C125.701 67.3561 125.786 67.2711 125.786 67.2286C125.87 67.1012 125.955 66.9313 126.04 66.8038C126.04 66.7613 126.082 66.6764 126.124 66.6764C126.167 66.6339 126.167 66.5489 126.209 66.5064C126.251 66.3365 126.294 66.1666 126.336 65.9966C126.378 65.8267 126.378 65.6993 126.421 65.6143C126.463 65.0195 126.421 64.5098 126.336 64C126.251 64.2124 125.997 64.3823 125.743 64.3823C125.701 64.2548 125.659 64.2549 125.574 64.2124ZM122.398 62.6405C122.398 62.683 122.398 62.7255 122.398 62.768C122.948 63.0653 123.414 63.5326 123.753 64.0424C124.219 63.7026 124.685 63.3202 125.108 62.9379C125.066 62.768 125.023 62.5555 124.981 62.3856V62.3431C124.981 62.3007 124.939 62.3007 124.939 62.2582C124.896 62.1732 124.854 62.1307 124.812 62.0458C124.769 62.0033 124.769 62.0033 124.769 62.0033L124.727 61.9608C124.685 61.9183 124.642 61.8758 124.558 61.8333C124.515 61.8333 124.515 61.7909 124.473 61.7909C124.431 61.7484 124.388 61.7484 124.304 61.7059H124.261C124.219 61.7059 124.134 61.6634 124.092 61.6634H124.049C124.007 61.6634 123.922 61.6634 123.88 61.6634C123.838 61.6634 123.753 61.6634 123.711 61.6634H123.668C123.541 61.7059 123.414 61.7059 123.33 61.7484C123.287 61.7484 123.287 61.7484 123.245 61.7909C123.203 61.8333 123.16 61.8333 123.118 61.8758C123.033 61.9183 122.906 62.0033 122.821 62.0458L122.779 62.0882C122.737 62.1307 122.694 62.1732 122.652 62.2157C122.652 62.2157 122.61 62.2582 122.567 62.3007C122.567 62.3431 122.525 62.3431 122.525 62.3856C122.483 62.4281 122.483 62.4706 122.44 62.5131V62.5556C122.44 62.5131 122.398 62.5555 122.398 62.6405ZM121.17 63.7875C121.212 63.7875 121.212 63.7875 121.212 63.7875H121.17ZM120.154 64.6797V64.7222V64.7646C120.111 64.7222 120.154 64.7222 120.154 64.7646V64.8071C120.154 64.8071 120.154 64.8071 120.154 64.7646C120.196 64.8071 120.196 64.8071 120.238 64.8496C120.281 64.8921 120.323 64.8921 120.365 64.9346C120.492 64.9771 120.577 64.9771 120.704 65.0195C120.746 65.0195 120.789 65.0195 120.831 65.0195C120.916 65.0195 120.958 65.0195 121.043 65.0195C121.212 65.0195 121.382 65.1045 121.466 65.1895C121.847 65.0195 122.186 64.8496 122.567 64.6797C122.144 64.4248 121.72 64.1274 121.466 63.7026C121.466 63.7026 121.466 63.7026 121.424 63.7026C121.382 63.7026 121.339 63.7026 121.297 63.7026C121.255 63.7026 121.212 63.7026 121.17 63.7026H121.128C121.085 63.7026 120.873 63.7451 120.831 63.7875C120.831 63.7875 120.958 63.7026 120.873 63.7451C120.873 63.7451 120.831 63.7451 120.831 63.7875C120.789 63.7875 120.746 63.83 120.704 63.8725C120.662 63.915 120.619 63.915 120.577 63.9575C120.492 64 120.45 64.0849 120.408 64.1274C120.408 64.1274 120.408 64.1274 120.365 64.1699C120.365 64.2124 120.323 64.2124 120.323 64.2549C120.281 64.2973 120.281 64.3398 120.281 64.3823C120.281 64.4248 120.238 64.4673 120.238 64.5097C120.196 64.5947 120.154 64.5947 120.154 64.6797ZM114.945 46.5396C115.326 46.6246 115.58 46.4122 115.707 46.1148C116.173 44.9253 116.597 43.7358 117.062 42.5887C117.189 42.2914 116.935 41.8665 116.639 41.8241C116.258 41.7391 116.004 41.9515 115.877 42.2489C115.411 43.4384 114.987 44.6279 114.522 45.7749C114.395 46.0298 114.649 46.4547 114.945 46.5396ZM115.877 32.0956C116.215 32.0956 116.512 32.0956 116.851 32.0956C117.02 32.0956 117.189 32.0106 117.317 31.9256C117.444 31.7982 117.528 31.6283 117.486 31.4583C117.486 31.2884 117.444 31.1185 117.317 30.991C117.189 30.8636 117.02 30.8211 116.851 30.8211C116.512 30.8211 116.215 30.8211 115.877 30.8211C115.707 30.8211 115.538 30.906 115.411 30.991C115.284 31.1185 115.199 31.2884 115.242 31.4583C115.242 31.6283 115.284 31.7982 115.411 31.9256C115.538 32.0531 115.707 32.0956 115.877 32.0956Z" fill="#4B5675"/>
</svg>
